<svg xmlns="http://www.w3.org/2000/svg" xmlns:xlink="http://www.w3.org/1999/xlink" width="500" zoomAndPan="magnify" viewBox="0 0 375 374.999991" height="500" preserveAspectRatio="xMidYMid meet" version="1.2"><defs/><g id="de163f178b"><path style=" stroke:none;fill-rule:nonzero;fill:#ff6d00;fill-opacity:1;" d="M 108.097656 146.148438 L 156.289062 184.039062 L 171.277344 172.1875 L 128.84375 138.875 L 266.558594 30.65625 C 270.566406 27.503906 271.246094 21.710938 268.109375 17.699219 C 264.953125 13.636719 259.160156 12.941406 255.078125 16.097656 L 108.097656 131.585938 C 103.550781 135.132812 103.285156 142.28125 108.097656 146.148438 Z M 108.097656 146.148438 "/><path style=" stroke:none;fill-rule:nonzero;fill:#7b1da7;fill-opacity:1;" d="M 108.097656 30.65625 L 156.289062 68.546875 L 171.347656 56.769531 L 119.574219 16.097656 C 115.511719 12.941406 109.699219 13.636719 106.5625 17.699219 C 103.410156 21.710938 104.085938 27.503906 108.097656 30.65625 Z M 108.097656 30.65625 "/><path style=" stroke:none;fill-rule:nonzero;fill:#ff6d00;fill-opacity:1;" d="M 266.558594 247.09375 L 218.363281 209.203125 L 203.375 220.984375 L 255.078125 261.636719 C 256.808594 262.9375 258.785156 263.617188 260.816406 263.617188 C 269.410156 263.632812 273.527344 252.566406 266.558594 247.09375 Z M 266.558594 247.09375 "/><path style=" stroke:none;fill-rule:nonzero;fill:#7b1da7;fill-opacity:1;" d="M 266.558594 131.585938 L 218.363281 93.714844 L 203.375 105.496094 L 245.828125 138.875 L 108.097656 247.09375 C 101.21875 252.496094 105.136719 263.632812 113.835938 263.632812 C 115.867188 263.632812 117.863281 262.976562 119.574219 261.65625 C 263.082031 151.476562 236.042969 170.421875 266.558594 146.148438 C 271.386719 142.296875 271.101562 135.132812 266.558594 131.585938 Z M 266.558594 131.585938 "/><g style="fill:#ff6d00;fill-opacity:1;"><g transform="translate(26.171942, 366.804223)"><path style="stroke:none" d="M 16.265625 -11.109375 L 36.09375 -11.109375 L 36.09375 0 L 3.28125 0 L 3.28125 -46.875 L 16.265625 -46.875 Z M 16.265625 -11.109375 "/></g></g><g style="fill:#ff6d00;fill-opacity:1;"><g transform="translate(87.109295, 366.804223)"><path style="stroke:none" d="M 25.25 -47.484375 C 29.976562 -47.484375 34.050781 -46.507812 37.46875 -44.5625 C 40.882812 -42.625 43.53125 -39.859375 45.40625 -36.265625 C 47.28125 -32.671875 48.21875 -28.394531 48.21875 -23.4375 C 48.21875 -18.570312 47.28125 -14.34375 45.40625 -10.75 C 43.53125 -7.15625 40.882812 -4.363281 37.46875 -2.375 C 34.050781 -0.382812 29.976562 0.609375 25.25 0.609375 C 20.5625 0.609375 16.5 -0.382812 13.0625 -2.375 C 9.625 -4.363281 6.96875 -7.15625 5.09375 -10.75 C 3.21875 -14.34375 2.28125 -18.570312 2.28125 -23.4375 C 2.28125 -28.394531 3.21875 -32.671875 5.09375 -36.265625 C 6.96875 -39.859375 9.625 -42.625 13.0625 -44.5625 C 16.5 -46.507812 20.5625 -47.484375 25.25 -47.484375 Z M 25.25 -10.515625 C 27.394531 -10.515625 29.144531 -11.082031 30.5 -12.21875 C 31.863281 -13.351562 32.878906 -14.90625 33.546875 -16.875 C 34.222656 -18.84375 34.5625 -21.03125 34.5625 -23.4375 C 34.5625 -27.1875 33.800781 -30.273438 32.28125 -32.703125 C 30.757812 -35.140625 28.414062 -36.359375 25.25 -36.359375 C 22.082031 -36.359375 19.738281 -35.140625 18.21875 -32.703125 C 16.695312 -30.273438 15.9375 -27.1875 15.9375 -23.4375 C 15.9375 -21.03125 16.269531 -18.84375 16.9375 -16.875 C 17.613281 -14.90625 18.640625 -13.351562 20.015625 -12.21875 C 21.398438 -11.082031 23.144531 -10.515625 25.25 -10.515625 Z M 25.25 -10.515625 "/></g></g><g style="fill:#ff6d00;fill-opacity:1;"><g transform="translate(160.836325, 366.804223)"><path style="stroke:none" d="M 29.46875 -26.046875 L 48.421875 0 L 34.21875 0 L 22.703125 -16.546875 L 22.765625 -17.953125 L 16.265625 -10.046875 L 16.265625 0 L 3.28125 0 L 3.28125 -46.875 L 16.265625 -46.875 L 16.265625 -27.53125 L 31.875 -46.875 L 46.609375 -46.875 Z M 29.46875 -26.046875 "/></g></g><g style="fill:#ff6d00;fill-opacity:1;"><g transform="translate(233.826775, 366.804223)"><path style="stroke:none" d="M 43.46875 -18.34375 C 43.46875 -14.28125 42.609375 -10.832031 40.890625 -8 C 39.171875 -5.164062 36.800781 -3.019531 33.78125 -1.5625 C 30.769531 -0.113281 27.300781 0.609375 23.375 0.609375 C 19.445312 0.609375 15.972656 -0.113281 12.953125 -1.5625 C 9.941406 -3.019531 7.578125 -5.164062 5.859375 -8 C 4.140625 -10.832031 3.28125 -14.28125 3.28125 -18.34375 L 3.28125 -46.875 L 16.265625 -46.875 L 16.265625 -18.890625 C 16.265625 -15.890625 16.890625 -13.742188 18.140625 -12.453125 C 19.398438 -11.160156 21.144531 -10.515625 23.375 -10.515625 C 25.601562 -10.515625 27.34375 -11.160156 28.59375 -12.453125 C 29.84375 -13.742188 30.46875 -15.890625 30.46875 -18.890625 L 30.46875 -46.875 L 43.46875 -46.875 Z M 43.46875 -18.34375 "/></g></g><g style="fill:#7b1da7;fill-opacity:1;"><g transform="translate(303.750422, 366.804223)"><path style="stroke:none" d="M 27.59375 -28.0625 C 31.476562 -27.300781 34.535156 -26.304688 36.765625 -25.078125 C 38.992188 -23.847656 40.566406 -22.335938 41.484375 -20.546875 C 42.398438 -18.765625 42.859375 -16.582031 42.859375 -14 C 42.859375 -11.539062 42.3125 -9.382812 41.21875 -7.53125 C 40.125 -5.675781 38.613281 -4.15625 36.6875 -2.96875 C 34.769531 -1.789062 32.59375 -0.898438 30.15625 -0.296875 C 27.726562 0.304688 25.175781 0.609375 22.5 0.609375 C 18.707031 0.609375 15.3125 -0.015625 12.3125 -1.265625 C 9.320312 -2.515625 6.945312 -4.390625 5.1875 -6.890625 C 3.425781 -9.390625 2.457031 -12.539062 2.28125 -16.34375 L 15.671875 -16.34375 C 16.023438 -14.550781 16.703125 -13.050781 17.703125 -11.84375 C 18.710938 -10.644531 20.378906 -10.046875 22.703125 -10.046875 C 24.671875 -10.046875 26.28125 -10.46875 27.53125 -11.3125 C 28.78125 -12.164062 29.40625 -13.101562 29.40625 -14.125 C 29.40625 -15.289062 29.035156 -16.175781 28.296875 -16.78125 C 27.554688 -17.382812 26.050781 -17.882812 23.78125 -18.28125 L 18.078125 -19.28125 C 15.492188 -19.78125 13.070312 -20.507812 10.8125 -21.46875 C 8.5625 -22.425781 6.753906 -23.851562 5.390625 -25.75 C 4.023438 -27.644531 3.34375 -30.222656 3.34375 -33.484375 C 3.34375 -36.390625 4.125 -38.890625 5.6875 -40.984375 C 7.25 -43.078125 9.414062 -44.679688 12.1875 -45.796875 C 14.957031 -46.921875 18.128906 -47.484375 21.703125 -47.484375 C 25.359375 -47.484375 28.632812 -46.9375 31.53125 -45.84375 C 34.4375 -44.75 36.78125 -43.0625 38.5625 -40.78125 C 40.351562 -38.507812 41.363281 -35.585938 41.59375 -32.015625 L 28.1875 -32.015625 C 28.007812 -33.972656 27.316406 -35.273438 26.109375 -35.921875 C 24.910156 -36.578125 23.441406 -36.90625 21.703125 -36.90625 C 20.492188 -36.90625 19.507812 -36.671875 18.75 -36.203125 C 17.988281 -35.734375 17.441406 -35.195312 17.109375 -34.59375 C 16.773438 -33.988281 16.609375 -33.484375 16.609375 -33.078125 C 16.609375 -32.503906 16.765625 -31.835938 17.078125 -31.078125 C 17.390625 -30.316406 18.304688 -29.800781 19.828125 -29.53125 Z M 27.59375 -28.0625 "/></g></g></g></svg>