<svg xmlns="http://www.w3.org/2000/svg" xmlns:xlink="http://www.w3.org/1999/xlink" width="500" zoomAndPan="magnify" viewBox="0 0 375 374.999991" height="500" preserveAspectRatio="xMidYMid meet" version="1.2"><defs><clipPath id="86ddd16f68"><path d="M 209 285 L 303 285 L 303 361.617188 L 209 361.617188 Z M 209 285 "/></clipPath><clipPath id="8db6d28249"><path d="M 72 125 L 303 125 L 303 361.617188 L 72 361.617188 Z M 72 125 "/></clipPath></defs><g id="49b1211afb"><path style=" stroke:none;fill-rule:nonzero;fill:#ff6d00;fill-opacity:1;" d="M 77.558594 198.445312 L 144.390625 250.988281 L 165.179688 234.554688 L 106.328125 188.359375 L 297.308594 38.285156 C 302.871094 33.910156 303.808594 25.875 299.460938 20.316406 C 295.085938 14.679688 287.050781 13.714844 281.394531 18.089844 L 77.558594 178.25 C 71.257812 183.167969 70.886719 193.082031 77.558594 198.445312 Z M 77.558594 198.445312 "/><path style=" stroke:none;fill-rule:nonzero;fill:#7b1da7;fill-opacity:1;" d="M 77.558594 38.285156 L 144.390625 90.832031 L 165.277344 74.492188 L 93.476562 18.089844 C 87.839844 13.714844 79.785156 14.679688 75.433594 20.316406 C 71.058594 25.875 72 33.910156 77.558594 38.285156 Z M 77.558594 38.285156 "/><g clip-rule="nonzero" clip-path="url(#86ddd16f68)"><path style=" stroke:none;fill-rule:nonzero;fill:#ff6d00;fill-opacity:1;" d="M 297.308594 338.433594 L 230.476562 285.890625 L 209.691406 302.226562 L 281.394531 358.601562 C 283.789062 360.40625 286.535156 361.347656 289.351562 361.347656 C 301.265625 361.371094 306.972656 346.023438 297.308594 338.433594 Z M 297.308594 338.433594 "/></g><g clip-rule="nonzero" clip-path="url(#8db6d28249)"><path style=" stroke:none;fill-rule:nonzero;fill:#7b1da7;fill-opacity:1;" d="M 297.308594 178.25 L 230.476562 125.730469 L 209.691406 142.066406 L 268.566406 188.359375 L 77.558594 338.433594 C 68.019531 345.925781 73.457031 361.371094 85.519531 361.371094 C 88.335938 361.371094 91.105469 360.457031 93.476562 358.628906 C 292.488281 205.832031 254.996094 232.105469 297.308594 198.445312 C 304.007812 193.105469 303.613281 183.167969 297.308594 178.25 Z M 297.308594 178.25 "/></g></g></svg>